<svg width="255" height="63" viewBox="0 0 255 63" fill="none" xmlns="http://www.w3.org/2000/svg">
<path d="M6.47383 30.5545C12.1438 27.0788 22.8781 27.8194 28.8542 28.8242C29.5242 28.9369 29.7083 29.7409 29.1242 30.0879C26.213 31.8174 21.5759 33.4016 16.5002 37.6063C10.1957 42.829 7.72905 56.4152 18.4937 59.2641C29.2584 62.113 56.6424 37.5822 59.8476 30.0489C64.1183 20.011 53.9095 10.2131 42.0225 4.47187C29.3763 -1.63599 16.3881 11.0505 11.4873 16.3171C3.61462 24.7775 -1.32979 35.3382 6.47383 30.5545Z" fill="#0057D9"/>
<path d="M93.6735 46.2422H82.6379V13.676H93.8961C97.1294 13.676 99.9069 14.3279 102.229 15.6318C104.561 16.9252 106.352 18.7856 107.603 21.2133C108.854 23.6409 109.48 26.5456 109.48 29.9273C109.48 33.3196 108.849 36.2349 107.587 38.6731C106.336 41.1113 104.529 42.9824 102.165 44.2863C99.8115 45.5902 96.981 46.2422 93.6735 46.2422ZM88.5373 41.1378H93.3873C95.6559 41.1378 97.5482 40.7244 99.0641 39.8975C100.58 39.06 101.72 37.8144 102.483 36.1606C103.246 34.4963 103.628 32.4185 103.628 29.9273C103.628 27.436 103.246 25.3688 102.483 23.7257C101.72 22.0719 100.591 20.8369 99.0959 20.0206C97.6118 19.1938 95.7672 18.7803 93.5622 18.7803H88.5373V41.1378ZM114.83 46.2422V21.8175H120.412V25.8883H120.666C121.112 24.4784 121.875 23.3918 122.956 22.6285C124.048 21.8546 125.294 21.4677 126.693 21.4677C127.011 21.4677 127.366 21.4836 127.758 21.5154C128.161 21.5366 128.495 21.5737 128.76 21.6267V26.9219C128.516 26.8371 128.129 26.7629 127.599 26.6993C127.08 26.6251 126.576 26.588 126.089 26.588C125.039 26.588 124.096 26.8159 123.258 27.2717C122.431 27.717 121.779 28.3371 121.302 29.1322C120.825 29.9273 120.587 30.8443 120.587 31.8832V46.2422H114.83ZM132.584 46.2422V21.8175H138.341V46.2422H132.584ZM135.478 18.351C134.567 18.351 133.782 18.0489 133.125 17.4446C132.468 16.8298 132.139 16.093 132.139 15.2343C132.139 14.365 132.468 13.6283 133.125 13.024C133.782 12.4091 134.567 12.1017 135.478 12.1017C136.401 12.1017 137.185 12.4091 137.832 13.024C138.489 13.6283 138.818 14.365 138.818 15.2343C138.818 16.093 138.489 16.8298 137.832 17.4446C137.185 18.0489 136.401 18.351 135.478 18.351ZM166.077 21.8175L157.379 46.2422H151.018L142.32 21.8175H148.458L154.071 39.9611H154.326L159.955 21.8175H166.077ZM180.042 46.7192C177.594 46.7192 175.479 46.2104 173.698 45.1927C171.927 44.1644 170.565 42.7121 169.611 40.8357C168.657 38.9487 168.18 36.7278 168.18 34.173C168.18 31.6605 168.657 29.4555 169.611 27.5579C170.576 25.6498 171.922 24.1656 173.65 23.1055C175.378 22.0348 177.408 21.4995 179.74 21.4995C181.246 21.4995 182.666 21.7433 184.002 22.231C185.348 22.708 186.535 23.4501 187.564 24.4572C188.603 25.4643 189.419 26.747 190.013 28.3053C190.606 29.8531 190.903 31.6976 190.903 33.839V35.6041H170.883V31.7241H185.385C185.375 30.6216 185.136 29.641 184.67 28.7824C184.203 27.9131 183.551 27.2293 182.714 26.7311C181.887 26.2328 180.922 25.9837 179.82 25.9837C178.643 25.9837 177.609 26.2699 176.719 26.8424C175.829 27.4042 175.134 28.1463 174.636 29.0686C174.148 29.9803 173.899 30.9821 173.889 32.074V35.461C173.889 36.8815 174.148 38.1006 174.668 39.1183C175.187 40.1254 175.913 40.8993 176.846 41.4399C177.779 41.97 178.871 42.235 180.122 42.235C180.959 42.235 181.717 42.1184 182.396 41.8852C183.074 41.6414 183.663 41.2862 184.161 40.8198C184.659 40.3533 185.035 39.7756 185.29 39.0865L190.665 39.6908C190.325 41.1113 189.679 42.3516 188.725 43.4117C187.781 44.4612 186.573 45.2775 185.099 45.8606C183.626 46.433 181.94 46.7192 180.042 46.7192ZM216.556 13.676H222.456V34.9521C222.456 37.2844 221.904 39.3356 220.802 41.106C219.71 42.8764 218.173 44.2598 216.19 45.2563C214.208 46.2422 211.892 46.7351 209.241 46.7351C206.581 46.7351 204.259 46.2422 202.277 45.2563C200.294 44.2598 198.757 42.8764 197.665 41.106C196.573 39.3356 196.027 37.2844 196.027 34.9521V13.676H201.927V34.4592C201.927 35.8161 202.224 37.0246 202.817 38.0847C203.422 39.1448 204.27 39.977 205.362 40.5813C206.453 41.1749 207.747 41.4717 209.241 41.4717C210.736 41.4717 212.03 41.1749 213.121 40.5813C214.224 39.977 215.072 39.1448 215.666 38.0847C216.259 37.0246 216.556 35.8161 216.556 34.4592V13.676ZM228.613 55.4014V21.8175H234.274V25.8565H234.608C234.905 25.2628 235.324 24.6321 235.865 23.9642C236.405 23.2858 237.137 22.708 238.059 22.231C238.981 21.7433 240.158 21.4995 241.589 21.4995C243.476 21.4995 245.177 21.9818 246.693 22.9465C248.22 23.9006 249.428 25.3158 250.319 27.1922C251.22 29.058 251.671 31.3478 251.671 34.0617C251.671 36.7437 251.231 39.0229 250.351 40.8993C249.471 42.7757 248.273 44.2068 246.757 45.1927C245.241 46.1786 243.524 46.6715 241.605 46.6715C240.206 46.6715 239.045 46.4383 238.123 45.9719C237.2 45.5054 236.458 44.9436 235.896 44.2863C235.345 43.6184 234.916 42.9877 234.608 42.394H234.37V55.4014H228.613ZM234.258 34.0299C234.258 35.6094 234.481 36.9928 234.926 38.1801C235.382 39.3674 236.034 40.295 236.882 40.9629C237.741 41.6202 238.78 41.9488 239.999 41.9488C241.271 41.9488 242.336 41.6096 243.195 40.9311C244.054 40.242 244.7 39.3038 245.135 38.1165C245.58 36.9186 245.803 35.5564 245.803 34.0299C245.803 32.5139 245.586 31.1676 245.151 29.9909C244.716 28.8142 244.07 27.8919 243.211 27.224C242.352 26.5562 241.282 26.2222 239.999 26.2222C238.769 26.2222 237.725 26.5456 236.866 27.1922C236.008 27.8389 235.356 28.7453 234.91 29.9114C234.476 31.0775 234.258 32.4503 234.258 34.0299Z" fill="black"/>
</svg>
